<svg width="8" height="28" viewBox="0 0 8 28" fill="none" xmlns="http://www.w3.org/2000/svg">
<path d="M1.1665 23.9169C1.1665 25.4752 2.4415 26.7502 3.99984 26.7502C5.55817 26.7502 6.83317 25.4752 6.83317 23.9169C6.83317 22.3586 5.55817 21.0836 3.99984 21.0836C2.4415 21.0836 1.1665 22.3586 1.1665 23.9169Z" stroke="#A3B2C7" stroke-width="1.50667"/>
<path d="M1.1665 4.08341C1.1665 5.64175 2.4415 6.91675 3.99984 6.91675C5.55817 6.91675 6.83317 5.64175 6.83317 4.08341C6.83317 2.52508 5.55817 1.25008 3.99984 1.25008C2.4415 1.25008 1.1665 2.52508 1.1665 4.08341Z" stroke="#A3B2C7" stroke-width="1.50667"/>
<path d="M1.1665 14.0004C1.1665 15.5587 2.4415 16.8337 3.99984 16.8337C5.55817 16.8337 6.83317 15.5587 6.83317 14.0004C6.83317 12.4421 5.55817 11.1671 3.99984 11.1671C2.4415 11.1671 1.1665 12.4421 1.1665 14.0004Z" stroke="#A3B2C7" stroke-width="1.50667"/>
</svg>
