<svg width="22" height="22" viewBox="0 0 22 22" fill="none" xmlns="http://www.w3.org/2000/svg">
<path d="M19.054 2.37077C19.1973 2.59601 18.9518 2.85841 18.6915 2.79925C18.1823 2.64758 17.619 2.57175 17.0448 2.57175H13.4487C13.2915 2.57175 13.1434 2.4978 13.049 2.37212L11.7907 0.697581C11.6381 0.481395 11.7823 0.166748 12.0469 0.166748H15.0298C16.7209 0.166748 18.2106 1.04504 19.054 2.37077Z" fill="white"/>
<path d="M19.8182 5.08508C19.3523 4.74925 18.8215 4.50008 18.2473 4.35925C17.8573 4.25091 17.4565 4.19675 17.0448 4.19675H13.0148C12.3865 4.19675 12.3432 4.14258 12.0073 3.69842L10.4907 1.68341C9.7865 0.740915 9.234 0.166748 7.46817 0.166748H4.95484C2.3115 0.166748 0.166504 2.31175 0.166504 4.95508V17.0451C0.166504 19.6884 2.3115 21.8334 4.95484 21.8334H17.0448C19.6882 21.8334 21.8332 19.6884 21.8332 17.0451V8.98508C21.8332 7.37092 21.0423 5.95175 19.8182 5.08508ZM13.589 15.7017H8.39984C7.97734 15.7017 7.65234 15.3659 7.65234 14.9434C7.65234 14.5317 7.97734 14.1851 8.39984 14.1851H13.589C14.0115 14.1851 14.3473 14.5317 14.3473 14.9434C14.3473 15.3659 14.0115 15.7017 13.589 15.7017Z" fill="white"/>
</svg>
