<svg width="21" height="16" viewBox="0 0 21 16" fill="none" xmlns="http://www.w3.org/2000/svg">
<path d="M16.1273 15.2763H11.8363V10.9403H13.2544C13.614 10.9403 13.8265 10.5317 13.614 10.2374L10.8555 6.42053C10.6798 6.17533 10.3161 6.17533 10.1404 6.42053L7.3819 10.2374C7.16939 10.5317 7.37781 10.9403 7.74152 10.9403H9.15958V15.2763H4.3537C2.20821 15.1578 0.5 13.1512 0.5 10.9771C0.5 9.47733 1.31324 8.16961 2.5188 7.46262C2.40846 7.16429 2.35125 6.84554 2.35125 6.51043C2.35125 4.97794 3.5895 3.73969 5.12199 3.73969C5.453 3.73969 5.77176 3.79691 6.07009 3.90724C6.95689 2.02739 8.86943 0.723755 11.0926 0.723755C13.9696 0.727842 16.3398 2.93054 16.6095 5.73806C18.8204 6.11812 20.5 8.16552 20.5 10.4826C20.5 12.9591 18.5711 15.1046 16.1273 15.2763Z" fill="white"/>
</svg>
